<?xml version="1.0" encoding="utf-8"?>
<!-- Generator: Adobe Illustrator 25.2.1, SVG Export Plug-In . SVG Version: 6.00 Build 0)  -->
<svg version="1.1" id="图层_1" xmlns="http://www.w3.org/2000/svg" xmlns:xlink="http://www.w3.org/1999/xlink" x="0px" y="0px"
	 viewBox="0 0 240 72" style="enable-background:new 0 0 240 72;" xml:space="preserve">
<style type="text/css">
	.st0{fill:#FFFFFF;}
</style>
<g id="页面-1">
	<g id="门户6" transform="translate(-48.000000, -14.000000)">
		<g id="中电金信Logo" transform="translate(48.000000, 14.000000)">
			<path id="路径" class="st0" d="M59.47,54.33V35.65c0.01-3.19,2.56-5.77,5.72-5.78h5.71v24.46c-0.02,3.18-2.57,5.75-5.71,5.76
				c-3.15,0.01-5.71,2.59-5.72,5.77c0,3.18-2.55,5.76-5.69,5.78H18.15v-5.78c0.01-3.19,2.57-5.77,5.72-5.77h29.9
				C56.91,60.08,59.46,57.51,59.47,54.33"/>
			<path id="路径_1_" class="st0" d="M23.87,18.32c-1.52,0-2.97,0.6-4.05,1.69s-1.68,2.55-1.67,4.09v26.66
				c-0.02,5.15-4.15,9.32-9.24,9.33h-9.24v-32.4c0.01-5.16,4.14-9.34,9.24-9.35C14,18.3,18.12,14.14,18.15,9
				c0.02-5.15,4.14-9.32,9.24-9.35h32.08V9c-0.02,5.15-4.15,9.31-9.24,9.33H23.87z"/>
			<path id="路径_2_" class="st0" d="M44.5,48.56H29.56v-15.1c0.02-1.95,1.58-3.53,3.51-3.55h14.94v15.1
				c-0.02,1.97-1.6,3.55-3.55,3.55"/>
			<path id="路径_3_" class="st0" d="M201.89,19.93l-14.88-5.16c-1-0.4-2.11-0.4-3.11,0l-14.88,5.18v3.55l16.44-5.72l16.43,5.72
				V19.93z"/>
			<polygon id="路径_4_" class="st0" points="225.46,15.17 231.15,15.17 231.87,17.35 239.67,17.35 239.67,19.6 218.09,19.6 
				218.09,17.35 226.19,17.35 			"/>
			<rect id="矩形" x="218.09" y="22.54" class="st0" width="21.58" height="2.26"/>
			<rect id="矩形_1_" x="218.09" y="27.72" class="st0" width="21.58" height="2.25"/>
			<path id="路径_5_" class="st0" d="M206.79,20.35l7.47-4.55c0.19-0.15,0.45-0.17,0.67-0.05s0.34,0.35,0.33,0.59v28.82h-5.68
				V22.43l-2.81,1.69L206.79,20.35z"/>
			<path id="路径_6_" class="st0" d="M218.09,32.89h5.68v9.99h8.22v2.28h-11.65c-1.24-0.01-2.25-1.03-2.25-2.28V32.89
				L218.09,32.89z"/>
			<polygon id="路径_7_" class="st0" points="191.03,45.16 188.28,45.16 182.61,45.16 179.88,45.16 175.46,45.16 174.46,45.16 
				169.02,45.16 169.02,42.88 174.46,42.88 172.34,36.72 178.02,36.72 180.14,42.88 182.61,42.88 182.61,33.88 171.01,33.88 
				171.01,31.62 182.61,31.62 182.61,27.17 171.01,27.17 171.01,24.92 199.88,24.92 199.88,27.17 188.28,27.17 188.28,31.62 
				199.88,31.62 199.88,33.88 188.28,33.88 188.28,40.94 188.28,42.88 190.76,42.88 192.89,36.72 198.57,36.72 196.44,42.88 
				201.89,42.88 201.89,45.16 196.08,45.16 195.46,45.16 			"/>
			<path id="路径_8_" class="st0" d="M230.22,52.98h-3.84v16.17h3.84v-6.97c1.5-2.17,5.56-2.54,5.47,0.46v6.51h3.85v-6.8
				c0.08-1.94-1.29-3.63-3.19-3.92c-2.15-0.44-4.39,0.08-6.14,1.42V52.98z"/>
			<path id="形状" class="st0" d="M135.2,62.81c0.12-1.63,1.47-2.88,3.09-2.84c0.79-0.06,1.57,0.21,2.15,0.75
				c0.59,0.54,0.93,1.29,0.94,2.09H135.2z M144.6,68.04v-1.95c-2.75,1.79-9.09,2.23-9.48-1.57h9.72c0.24-4.6-3.23-6.19-6.8-6.19
				c-3.32,0-6.91,1.78-6.91,5.58c0,4.13,4.22,5.5,7.65,5.5C140.81,69.48,142.82,69,144.6,68.04"/>
			<path id="形状_1_" class="st0" d="M120.43,55c0,1.16,1.24,1.83,2.26,1.83s2.25-0.65,2.25-1.83s-1.24-1.81-2.25-1.81
				C121.67,53.19,120.43,53.83,120.43,55 M124.65,58.55h-3.85v10.59h3.85V58.55z"/>
			<path id="路径_9_" class="st0" d="M112.98,57.63v-3.09c-2.47-0.89-5.07-1.32-7.69-1.27c-4.96,0-11.86,2.07-11.86,8.2
				c0,8.86,13.67,9.4,19.96,6.06v-6.78h-9.42v2.13h5.32V66c-4.22,1.33-11.36,0.64-11.36-4.39c0-4.09,4.34-5.48,7.69-5.48
				C108.15,56.13,110.65,56.64,112.98,57.63"/>
			<path id="路径_10_" class="st0" d="M154.8,58.56h-3.87v10.59h3.84v-6.97c1.49-2.17,5.56-2.54,5.47,0.46v6.51h3.84v-6.8
				c0.09-1.94-1.29-3.63-3.18-3.92c-2.15-0.44-4.39,0.08-6.14,1.42L154.8,58.56z"/>
			<path id="路径_11_" class="st0" d="M93.45,17.35h5.68v18.02h7.93V19.6h-5.92v-2.25h5.92v-2.17h5.68v2.17h11.36
				c1.23,0.01,2.22,1.01,2.23,2.25v18.04h-5.68V19.6h-7.91v15.77h5.92v2.25h-5.92v7.51h-5.68v-7.49H95.69
				c-1.23,0-2.23-1.01-2.23-2.25V17.35z"/>
			<path id="路径_12_" class="st0" d="M131.25,17.35h5.69v18.02h7.91v-6.75h-5.92v-2.25h5.92V19.6h-5.92v-2.25h5.92v-2.17h5.68
				v2.17h11.35c1.23,0,2.23,1.01,2.23,2.25v18.04h-5.68V19.6h-7.93v6.77h5.91v2.25h-5.91v6.75h5.91v2.25h-5.91v5.23h13.59v2.28
				h-17.04c-0.59,0-1.16-0.25-1.58-0.67c-0.42-0.43-0.65-1.01-0.65-1.61v-5.21h-11.36c-0.59,0-1.16-0.24-1.58-0.67
				c-0.42-0.43-0.65-1-0.65-1.6V17.35L131.25,17.35z"/>
			<path id="路径_13_" class="st0" d="M233.99,42.88v-7.71h-8.21v-2.28h11.65c1.24,0.01,2.24,1.03,2.23,2.28v9.99h-5.68V42.88z"/>
			<polygon id="路径_14_" class="st0" points="179.63,69.15 179.63,55.84 185.23,55.84 185.23,53.73 170.17,53.73 170.17,55.84 
				175.79,55.84 175.79,69.15 			"/>
			<path id="形状_2_" class="st0" d="M192.4,62.81c0.14-1.63,1.5-2.87,3.11-2.84c0.79-0.06,1.56,0.21,2.15,0.75
				c0.58,0.54,0.92,1.29,0.94,2.09H192.4z M201.78,68.04v-1.95c-2.75,1.79-9.1,2.23-9.5-1.57h9.74c0.22-4.6-3.23-6.19-6.79-6.19
				c-3.35,0-6.92,1.78-6.92,5.58c0,4.13,4.22,5.5,7.63,5.5C197.98,69.47,199.99,69,201.78,68.04"/>
			<path id="路径_15_" class="st0" d="M207.66,63.88c0,6.16,7.99,6.73,12.1,4.37v-2.17c-2.61,1.69-8.09,1.42-8.09-2.19
				c0-4.01,5.48-3.91,8.09-2.19v-2.13C215.65,57.2,207.66,57.71,207.66,63.88"/>
		</g>
	</g>
</g>
</svg>
